<?xml version="1.0" encoding="UTF-8"?>
<!-- Created with Inkscape (http://www.inkscape.org/) -->
<svg width="65.403mm" height="28.179mm" version="1.1" viewBox="0 0 65.403 28.179" xml:space="preserve" xmlns="http://www.w3.org/2000/svg"><g transform="translate(-65.825 -76.347)"><path d="m100.65 88.727v15.548h3.269v-15.548h-3.269zm-30.886 0.88005v8.2145c0 2.1513 0.58665 3.8066 1.7601 4.9661 1.1734 1.1595 2.8009 1.7394 4.8824 1.7394 2.0815 0 3.7089-0.57995 4.8824-1.7394 1.1735-1.1595 1.7601-2.8148 1.7601-4.9661v-8.2145h-3.3528v8.0884c0 1.397-0.28611 2.4032-0.85886 3.0179-0.57276 0.61467-1.3764 0.92191-2.4102 0.92191-1.0338 0-1.8369-0.30724-2.4097-0.92191-0.57276-0.61466-0.85886-1.6209-0.85886-3.0179v-8.0884h-3.3946zm23.259 3.2272c-0.96391 0-1.8227 0.2026-2.5771 0.60772-0.44845 0.24083-0.82736 0.55093-1.1524 0.91519v-1.3555h-3.1223v11.274h3.2685v-5.5738c0-0.69848 0.11187-1.2712 0.33538-1.7182 0.23748-0.44703 0.55916-0.77541 0.96428-0.98495 0.41909-0.22352 0.88666-0.33538 1.4035-0.33538 0.72642 0 1.2852 0.21651 1.6764 0.64957 0.40512 0.43306 0.60771 1.1037 0.60771 2.0118v5.9511h3.2691v-6.4539c0-1.1455-0.20259-2.0817-0.60771-2.8081-0.40512-0.74039-0.96393-1.2853-1.6764-1.6345-0.69848-0.36321-1.4949-0.54467-2.389-0.54467zm19.11 0c-1.1455 0-2.1719 0.25157-3.0799 0.75448-0.90803 0.48894-1.6277 1.1735-2.1585 2.0536-0.51688 0.86612-0.77514 1.8647-0.77514 2.9962 0 1.1176 0.26548 2.1166 0.79633 2.9967 0.53085 0.86612 1.2778 1.5507 2.2417 2.0536 0.97788 0.50291 2.1094 0.75396 3.3946 0.75396h5.1e-4c1.0198 0 1.9204-0.15362 2.7027-0.46095 0.7823-0.3213 1.4324-0.77495 1.9492-1.3617l-1.7394-1.8862c-0.37719 0.36321-0.7963 0.63592-1.2573 0.81753-0.44703 0.1816-0.97079 0.27233-1.5715 0.27233-0.67055 0-1.2572-0.11908-1.7601-0.35657-0.48894-0.25145-0.87351-0.60767-1.1529-1.0687-0.14425-0.25814-0.24524-0.53878-0.31109-0.83819h8.5256c0.01393-0.1397 0.02785-0.2861 0.04185-0.43977 0.01394-0.16764 0.02067-0.31456 0.02067-0.44028 0-1.2154-0.25826-2.2562-0.77514-3.1223-0.51688-0.88009-1.2226-1.5502-2.1167-2.0112-0.88008-0.47497-1.8719-0.71262-2.9755-0.71262zm13.222 0c-1.1455 0-2.1724 0.25157-3.0804 0.75448-0.90803 0.48894-1.6272 1.1735-2.158 2.0536-0.51688 0.86612-0.77566 1.8647-0.77566 2.9962 0 1.1176 0.26549 2.1166 0.79633 2.9967 0.53085 0.86612 1.2783 1.5507 2.2422 2.0536 0.97787 0.50291 2.1094 0.75396 3.3946 0.75396 1.0198 0 1.9209-0.15362 2.7032-0.46095 0.78231-0.3213 1.4318-0.77495 1.9487-1.3617l-1.7389-1.8862c-0.37718 0.36321-0.79629 0.63592-1.2573 0.81753-0.44703 0.1816-0.9713 0.27233-1.572 0.27233-0.67054 0-1.2572-0.11908-1.7601-0.35657-0.48893-0.25145-0.87299-0.60767-1.1524-1.0687-0.14426-0.25814-0.24576-0.53878-0.31161-0.83819h8.5256c0.014-0.1397 0.02792-0.2861 0.04186-0.43977 0.01393-0.16764 0.02118-0.31456 0.02118-0.44028 0-1.2154-0.25827-2.2562-0.77514-3.1223-0.51688-0.88009-1.2226-1.5502-2.1167-2.0112-0.88009-0.47497-1.8719-0.71262-2.9755-0.71262zm-13.201 2.4727c0.55879 0 1.048 0.12578 1.4671 0.37724 0.4191 0.23748 0.74696 0.57256 0.98444 1.0056 0.15709 0.28645 0.25739 0.61008 0.31057 0.96376h-5.5402c0.05453-0.34762 0.15276-0.66422 0.30541-0.94258 0.23749-0.44703 0.56586-0.78933 0.98495-1.0268 0.43306-0.25145 0.92898-0.37724 1.4878-0.37724zm13.222 0c0.55878 0 1.0475 0.12578 1.4666 0.37724 0.41909 0.23748 0.74746 0.57256 0.98495 1.0056 0.15708 0.28644 0.25688 0.61009 0.31006 0.96376h-5.5397c0.05453-0.34762 0.15276-0.66422 0.30541-0.94258 0.23748-0.44703 0.56586-0.78933 0.98495-1.0268 0.43306-0.25145 0.92898-0.37724 1.4878-0.37724z" fill="#f9f9f9" stroke-width=".52386"/><g fill="#2798f2"><path d="m71.926 76.347a6.1019 6.1019 0 0 0-6.102 6.102 6.1019 6.1019 0 0 0 6.102 6.102 6.1019 6.1019 0 0 0 4.5687-2.0593 6.1019 6.1019 0 0 0 4.5651 2.0593 6.1019 6.1019 0 0 0 6.102-6.102 6.1019 6.1019 0 0 0-6.102-6.102 6.1019 6.1019 0 0 0-4.5651 2.0593 6.1019 6.1019 0 0 0-4.5687-2.0593zm0 3.0975a3.0044 3.0044 0 0 1 3.0045 3.0045 3.0044 3.0044 0 0 1-3.0045 3.0045 3.0044 3.0044 0 0 1-3.0045-3.0045 3.0044 3.0044 0 0 1 3.0045-3.0045zm9.1338 0a3.0044 3.0044 0 0 1 3.0045 3.0045 3.0044 3.0044 0 0 1-3.0045 3.0045 3.0044 3.0044 0 0 1-3.0045-3.0045 3.0044 3.0044 0 0 1 3.0045-3.0045z"/><circle cx="111.95" cy="87.924" r="2.1606"/><circle cx="125.68" cy="87.924" r="2.1606"/></g></g></svg>
