<?xml version="1.0" encoding="UTF-8" standalone="no"?>
<!-- Created with Inkscape (http://www.inkscape.org/) -->

<svg
   width="65.403206mm"
   height="28.179472mm"
   viewBox="0 0 65.403206 28.179472"
   version="1.1"
   id="svg1"
   xml:space="preserve"
   inkscape:version="1.3 (1:1.3+202307231459+0e150ed6c4)"
   sodipodi:docname="logo.svg"
   xmlns:inkscape="http://www.inkscape.org/namespaces/inkscape"
   xmlns:sodipodi="http://sodipodi.sourceforge.net/DTD/sodipodi-0.dtd"
   xmlns="http://www.w3.org/2000/svg"
   xmlns:svg="http://www.w3.org/2000/svg"><sodipodi:namedview
     id="namedview1"
     pagecolor="#ffffff"
     bordercolor="#999999"
     borderopacity="1"
     inkscape:showpageshadow="0"
     inkscape:pageopacity="0"
     inkscape:pagecheckerboard="0"
     inkscape:deskcolor="#d1d1d1"
     inkscape:document-units="mm"
     inkscape:zoom="1.8872648"
     inkscape:cx="56.165939"
     inkscape:cy="90.872251"
     inkscape:window-width="1920"
     inkscape:window-height="949"
     inkscape:window-x="0"
     inkscape:window-y="0"
     inkscape:window-maximized="1"
     inkscape:current-layer="g1" /><defs
     id="defs1" /><g
     inkscape:label="Layer 1"
     inkscape:groupmode="layer"
     id="layer1"
     transform="translate(-65.82454,-76.347129)"><g
       id="g1"><path
         id="text32"
         style="font-weight:bold;font-size:20.9545px;line-height:1.25;font-family:Montserrat;-inkscape-font-specification:Montserrat;stroke-width:0.523863"
         d="M 100.65497 88.726735 L 100.65497 104.27514 L 103.92402 104.27514 L 103.92402 88.726735 L 100.65497 88.726735 z M 69.768485 89.606785 L 69.768485 97.82127 C 69.768485 99.972595 70.355134 101.62789 71.528585 102.78738 C 72.702035 103.94685 74.329495 104.5268 76.410974 104.5268 C 78.492452 104.5268 80.119912 103.94685 81.293363 102.78738 C 82.466814 101.62789 83.053463 99.972595 83.053463 97.82127 L 83.053463 89.606785 L 79.700696 89.606785 L 79.700696 97.69518 C 79.700696 99.092145 79.414589 100.09842 78.841833 100.71308 C 78.269077 101.32775 77.465399 101.63499 76.431644 101.63499 C 75.39789 101.63499 74.594728 101.32775 74.021972 100.71308 C 73.449216 100.09842 73.16311 99.092145 73.16311 97.69518 L 73.16311 89.606785 L 69.768485 89.606785 z M 93.027531 92.833978 C 92.063625 92.833978 91.204788 93.036573 90.450427 93.441693 C 90.001979 93.682526 89.623069 93.992627 89.298043 94.356882 L 89.298043 93.00141 L 86.175753 93.00141 L 86.175753 104.27514 L 89.444287 104.27514 L 89.444287 98.70132 C 89.444287 98.002837 89.556153 97.430108 89.779667 96.983079 C 90.017151 96.53605 90.338829 96.20767 90.743949 95.998126 C 91.163039 95.774611 91.630604 95.662746 92.147481 95.662746 C 92.873903 95.662746 93.432714 95.87926 93.823865 96.312319 C 94.228985 96.745378 94.431579 97.416055 94.431579 98.324082 L 94.431579 104.27514 L 97.70063 104.27514 L 97.70063 97.82127 C 97.70063 96.675759 97.498036 95.739595 97.092916 95.013173 C 96.687796 94.272782 96.128985 93.727889 95.416532 93.378648 C 94.71805 93.015437 93.921588 92.833978 93.027531 92.833978 z M 112.13799 92.833978 C 110.99248 92.833978 109.9661 93.085546 109.05808 93.588454 C 108.15005 94.077392 107.4304 94.761988 106.89955 95.642075 C 106.38267 96.508194 106.12441 97.506733 106.12441 98.638275 C 106.12441 99.75585 106.38989 100.75491 106.92074 101.63499 C 107.45159 102.50111 108.19856 103.18571 109.16246 103.68861 C 110.14034 104.19152 111.27188 104.44257 112.55709 104.44257 L 112.5576 104.44257 C 113.57739 104.44257 114.47798 104.28895 115.26028 103.98162 C 116.04258 103.66032 116.69264 103.20667 117.20952 102.61994 L 115.47009 100.73375 C 115.0929 101.09696 114.67379 101.36967 114.2128 101.55128 C 113.76577 101.73288 113.24201 101.82361 112.64132 101.82361 C 111.97077 101.82361 111.38413 101.70453 110.88122 101.46704 C 110.39228 101.21559 110.00771 100.85937 109.72832 100.39837 C 109.58407 100.14023 109.48308 99.859588 109.41723 99.560182 L 117.94281 99.560182 C 117.95674 99.420486 117.97066 99.274082 117.98466 99.120416 C 117.9986 98.95278 118.00533 98.805859 118.00533 98.680133 C 118.00533 97.464773 117.74707 96.423961 117.23019 95.557843 C 116.71331 94.677755 116.00758 94.007595 115.11352 93.546596 C 114.23344 93.071628 113.2416 92.833978 112.13799 92.833978 z M 125.36044 92.833978 C 124.21494 92.833978 123.18804 93.085546 122.28001 93.588454 C 121.37198 94.077392 120.65285 94.761988 120.122 95.642075 C 119.60512 96.508194 119.34634 97.506733 119.34634 98.638275 C 119.34634 99.75585 119.61183 100.75491 120.14267 101.63499 C 120.67352 102.50111 121.421 103.18571 122.38491 103.68861 C 123.36278 104.19152 124.49433 104.44257 125.77954 104.44257 C 126.79932 104.44257 127.70043 104.28895 128.48273 103.98162 C 129.26504 103.66032 129.91458 103.20667 130.43145 102.61994 L 128.69254 100.73375 C 128.31536 101.09696 127.89625 101.36967 127.43525 101.55128 C 126.98822 101.73288 126.46395 101.82361 125.86325 101.82361 C 125.19271 101.82361 124.60607 101.70453 124.10315 101.46704 C 123.61422 101.21559 123.23016 100.85937 122.95077 100.39837 C 122.80651 100.14023 122.70501 99.859593 122.63916 99.560182 L 131.16474 99.560182 C 131.17874 99.420486 131.19266 99.274082 131.2066 99.120416 C 131.22053 98.95278 131.22778 98.805859 131.22778 98.680133 C 131.22778 97.464773 130.96951 96.423961 130.45264 95.557843 C 129.93576 94.677755 129.23003 94.007595 128.33597 93.546596 C 127.45588 93.071628 126.46405 92.833978 125.36044 92.833978 z M 112.15918 95.306695 C 112.71797 95.306695 113.20719 95.432479 113.62627 95.683933 C 114.04537 95.921418 114.37323 96.256498 114.61071 96.689557 C 114.7678 96.976008 114.8681 97.299637 114.92128 97.653322 L 109.38105 97.653322 C 109.43558 97.305697 109.53381 96.989107 109.68646 96.710744 C 109.92395 96.263715 110.25232 95.921418 110.67141 95.683933 C 111.10447 95.432479 111.60039 95.306695 112.15918 95.306695 z M 125.38163 95.306695 C 125.94041 95.306695 126.42912 95.432479 126.84821 95.683933 C 127.2673 95.921418 127.59567 96.256498 127.83316 96.689557 C 127.99024 96.976 128.09004 97.299649 128.14322 97.653322 L 122.6035 97.653322 C 122.65803 97.305697 122.75626 96.989107 122.90891 96.710744 C 123.14639 96.263715 123.47477 95.921418 123.89386 95.683933 C 124.32692 95.432479 124.82284 95.306695 125.38163 95.306695 z " /><path
         id="circle33"
         style="fill:#2798f2;fill-opacity:1;stroke:none;stroke-width:1.78015;stroke-opacity:1"
         d="M 71.926493 76.347129 A 6.1019397 6.1019397 0 0 0 65.82454 82.449082 A 6.1019397 6.1019397 0 0 0 71.926493 88.551035 A 6.1019397 6.1019397 0 0 0 76.495207 86.491729 A 6.1019397 6.1019397 0 0 0 81.060303 88.551035 A 6.1019397 6.1019397 0 0 0 87.162256 82.449082 A 6.1019397 6.1019397 0 0 0 81.060303 76.347129 A 6.1019397 6.1019397 0 0 0 76.495207 78.406435 A 6.1019397 6.1019397 0 0 0 71.926493 76.347129 z M 71.926493 79.444614 A 3.0043762 3.0043762 0 0 1 74.930961 82.449082 A 3.0043762 3.0043762 0 0 1 71.926493 85.45355 A 3.0043762 3.0043762 0 0 1 68.922025 82.449082 A 3.0043762 3.0043762 0 0 1 71.926493 79.444614 z M 81.060303 79.444614 A 3.0043762 3.0043762 0 0 1 84.06477 82.449082 A 3.0043762 3.0043762 0 0 1 81.060303 85.45355 A 3.0043762 3.0043762 0 0 1 78.055835 82.449082 A 3.0043762 3.0043762 0 0 1 81.060303 79.444614 z " /><circle
         style="fill:#2798f2;fill-opacity:1;stroke:none;stroke-width:1.61514;stroke-opacity:1"
         id="circle37"
         cx="111.95193"
         cy="87.923904"
         r="2.1605604" /><circle
         style="fill:#2798f2;fill-opacity:1;stroke:none;stroke-width:1.61514;stroke-opacity:1"
         id="circle38"
         cx="125.68396"
         cy="87.923904"
         r="2.1605604" /></g></g></svg>
