<?xml version="1.0" encoding="UTF-8"?>
<!-- Created with Inkscape (http://www.inkscape.org/) -->
<svg width="65.401mm" height="38.955mm" version="1.1" viewBox="0 0 65.401 38.955" xml:space="preserve" xmlns="http://www.w3.org/2000/svg"><path d="m34.829 12.379v15.548h3.2685v-15.548h-3.2685zm-30.887 0.88005v8.214c0 2.1513 0.58666 3.8071 1.7601 4.9666 1.1734 1.1595 2.8009 1.7389 4.8824 1.7389 2.0815 0 3.7089-0.57944 4.8824-1.7389s1.7601-2.8153 1.7601-4.9666v-8.214h-3.3522v8.0884c0 1.397-0.28663 2.4027-0.85938 3.0174-0.57275 0.61466-1.3759 0.92191-2.4097 0.92191-1.0337 0-1.8369-0.30725-2.4097-0.92191-0.57275-0.61466-0.85938-1.6204-0.85938-3.0174v-8.0884h-3.3946zm23.26 3.2272c-0.9639 0-1.8233 0.2026-2.5776 0.60772-0.44845 0.24083-0.82736 0.55094-1.1524 0.91519v-1.3555h-3.1223v11.273h3.2691v-5.5738c0-0.69848 0.11187-1.2712 0.33538-1.7182 0.23748-0.44702 0.55865-0.77489 0.96376-0.98444 0.41909-0.22351 0.88717-0.33538 1.404-0.33538 0.72642 0 1.2852 0.21652 1.6764 0.64957 0.40512 0.43306 0.60772 1.1037 0.60772 2.0118v5.9505h3.2685v-6.4539c0-1.1455-0.2026-2.0812-0.60771-2.8076-0.40512-0.74039-0.96394-1.2853-1.6764-1.6345-0.69848-0.36321-1.4944-0.54467-2.3885-0.54467zm19.11 0c-1.1455 0-2.1724 0.25106-3.0804 0.75396-0.90802 0.48893-1.6277 1.1735-2.1585 2.0536-0.51687 0.86611-0.77515 1.8652-0.77515 2.9967 0 1.1176 0.26549 2.1161 0.79633 2.9962 0.53084 0.86611 1.2783 1.5507 2.2422 2.0536 0.97787 0.5029 2.1094 0.75448 3.3946 0.75448 1.0198 0 1.9204-0.15362 2.7027-0.46095 0.7823-0.3213 1.4324-0.77547 1.9492-1.3622l-1.7394-1.8857c-0.37718 0.36321-0.79629 0.6354-1.2573 0.817-0.44703 0.1816-0.97079 0.27234-1.5715 0.27234-0.67054 0-1.2572-0.11857-1.7601-0.35605-0.48893-0.25145-0.87351-0.60767-1.1529-1.0687-0.14426-0.25814-0.24524-0.53879-0.31109-0.83819h8.5256c0.013969-0.1397 0.027888-0.28662 0.041858-0.44028 0.013969-0.16764 0.02067-0.31404 0.02067-0.43977 0-1.2154-0.25827-2.2562-0.77515-3.1223-0.51688-0.88008-1.2221-1.5508-2.1162-2.0118-0.88008-0.47497-1.8719-0.7121-2.9755-0.7121zm13.222 0c-1.1455 0-2.1724 0.25106-3.0804 0.75396-0.90802 0.48893-1.6272 1.1735-2.158 2.0536-0.51688 0.86611-0.77515 1.8652-0.77515 2.9967 0 1.1176 0.26497 2.1161 0.79582 2.9962 0.53084 0.86611 1.2783 1.5507 2.2422 2.0536 0.97787 0.5029 2.1094 0.75448 3.3946 0.75448 1.0198 0 1.9209-0.15362 2.7032-0.46095 0.7823-0.3213 1.4318-0.77547 1.9487-1.3622l-1.7394-1.8857c-0.37718 0.36321-0.79578 0.6354-1.2568 0.817-0.44703 0.1816-0.97131 0.27234-1.572 0.27234-0.67054 0-1.2572-0.11857-1.7601-0.35605-0.48893-0.25145-0.87299-0.60767-1.1524-1.0687-0.14426-0.25814-0.24576-0.53878-0.31161-0.83819h8.5256c0.013969-0.1397 0.027888-0.28662 0.041858-0.44028 0.013969-0.16764 0.021187-0.31404 0.021187-0.43977 0-1.2154-0.25827-2.2562-0.77515-3.1223-0.51687-0.88008-1.2226-1.5508-2.1167-2.0118-0.88008-0.47497-1.8719-0.7121-2.9755-0.7121zm-13.201 2.4722c0.55878 0 1.048 0.12578 1.4671 0.37724 0.41909 0.23748 0.74695 0.57308 0.98444 1.0061 0.15716 0.28659 0.25742 0.60988 0.31058 0.96377h-5.5402c0.054518-0.34774 0.15272-0.66466 0.30541-0.9431 0.23748-0.44703 0.56586-0.78933 0.98495-1.0268 0.43306-0.25145 0.92898-0.37724 1.4878-0.37724zm13.222 0c0.55878 0 1.0475 0.12578 1.4666 0.37724 0.41909 0.23748 0.74747 0.57308 0.98495 1.0061 0.15716 0.28658 0.2569 0.60989 0.31006 0.96377h-5.5397c0.054517-0.34774 0.15272-0.66466 0.30541-0.9431 0.23748-0.44703 0.56586-0.78933 0.98495-1.0268 0.43306-0.25145 0.92898-0.37724 1.4878-0.37724zm-40.433 13.562c-0.23086 0-0.41883 0.067318-0.56379 0.20154-0.14496 0.13422-0.21704 0.30055-0.21704 0.49919s0.072084 0.36498 0.21704 0.49919c0.14496 0.13422 0.33293 0.20154 0.56379 0.20154 0.23623 0 0.4242-0.067318 0.56379-0.20154 0.14496-0.13959 0.21756-0.3141 0.21756-0.52348 0-0.19864-0.072601-0.35969-0.21756-0.48318-0.14496-0.12885-0.33293-0.19327-0.56379-0.19327zm10.872 0c-0.23086 0-0.41883 0.067318-0.56379 0.20154-0.14496 0.13422-0.21756 0.30055-0.21756 0.49919s0.0726 0.36498 0.21756 0.49919c0.14496 0.13422 0.33293 0.20154 0.56379 0.20154 0.23623 0 0.42368-0.067318 0.56327-0.20154 0.14496-0.13959 0.21756-0.3141 0.21756-0.52348 0-0.19864-0.0726-0.35969-0.21756-0.48318-0.14496-0.12885-0.33242-0.19327-0.56327-0.19327zm-13.924 0.36225v5.9759h1.2563v-5.9759h-1.2563zm27.324 0v2.0986c-0.10006-0.10976-0.21162-0.20421-0.33796-0.27854-0.27381-0.16106-0.59352-0.24133-0.9586-0.24133-0.40803 0-0.7758 0.091347-1.1033 0.27388-0.3275 0.18254-0.58807 0.44022-0.78135 0.77308-0.18791 0.33286-0.28164 0.72756-0.28164 1.1839 0 0.45098 0.093728 0.84277 0.28164 1.1756 0.19328 0.33286 0.45385 0.59292 0.78135 0.78083 0.3275 0.18254 0.69526 0.27388 1.1033 0.27388 0.38118 0 0.70618-0.080265 0.97462-0.24133 0.14441-0.084949 0.2697-0.19483 0.37827-0.32608v0.50333h1.1999v-5.9759h-1.2563zm13.408 0.24185c-0.44024 0-0.8484 0.0726-1.2242 0.21756-0.37581 0.14496-0.70319 0.34878-0.98237 0.61185-0.27918 0.26307-0.49646 0.5717-0.65216 0.92604-0.15033 0.35434-0.22531 0.74085-0.22531 1.1596 0 0.41876 0.074983 0.80528 0.22531 1.1596 0.1557 0.35434 0.3706 0.66297 0.6444 0.92604 0.27918 0.26307 0.60655 0.46741 0.98237 0.61237 0.38118 0.14496 0.79462 0.21756 1.2402 0.21756 0.44024 0 0.8455-0.0726 1.2159-0.21756 0.37581-0.14496 0.70081-0.3464 0.97462-0.6041 0.27918-0.26307 0.49646-0.5717 0.65216-0.92604 0.1557-0.35971 0.23358-0.74912 0.23358-1.1679 0-0.42414-0.077882-0.81065-0.23358-1.1596-0.1557-0.35434-0.37298-0.66297-0.65216-0.92604-0.27381-0.26307-0.5988-0.46689-0.97462-0.61185-0.37045-0.14496-0.7786-0.21756-1.2242-0.21756zm6.1123 0c-0.53151 0-0.97426 0.080265-1.3286 0.24133-0.34897 0.1557-0.61193 0.36821-0.7891 0.63665-0.1718 0.26307-0.25786 0.55534-0.25786 0.87747 0 0.30065 0.059137 0.54776 0.17725 0.74104 0.12348 0.19328 0.28163 0.34904 0.47491 0.46715 0.19328 0.11811 0.4058 0.21474 0.63665 0.2899 0.23623 0.075163 0.46936 0.13958 0.70022 0.19327 0.23623 0.048319 0.45113 0.10166 0.6444 0.16071 0.19328 0.053688 0.34904 0.12629 0.46716 0.21756 0.11811 0.0859 0.17725 0.20417 0.17725 0.3545 0 0.11811-0.037491 0.22292-0.11266 0.31419-0.075162 0.091269-0.19344 0.16335-0.3545 0.21704-0.1557 0.048319-0.36242 0.072863-0.62012 0.072863-0.33823 0-0.67379-0.053854-1.0067-0.16123-0.3275-0.11274-0.6121-0.25505-0.8537-0.42685l-0.44287 0.98237c0.25233 0.19328 0.58499 0.35194 0.99839 0.47542 0.4134 0.11811 0.84558 0.17725 1.2966 0.17725 0.53688 0 0.98015-0.080782 1.3291-0.24185 0.35434-0.16106 0.6202-0.37307 0.79737-0.63614 0.17717-0.26307 0.26562-0.55296 0.26562-0.86971 0-0.29528-0.062036-0.5395-0.18552-0.73277-0.11811-0.19328-0.27336-0.34904-0.46664-0.46716-0.19328-0.11811-0.40818-0.21236-0.6444-0.28215-0.23086-0.069794-0.46451-0.13131-0.70073-0.185-0.23086-0.053688-0.44286-0.10754-0.63614-0.16123-0.19328-0.053688-0.34904-0.12339-0.46716-0.20929-0.11811-0.091269-0.17725-0.20954-0.17725-0.3545 0-0.12348 0.035108-0.23068 0.1049-0.32194 0.069794-0.096639 0.18517-0.17452 0.34623-0.23358 0.16106-0.059056 0.36778-0.088366 0.62012-0.088366s0.51001 0.037491 0.77308 0.11265c0.26307 0.069795 0.52603 0.17989 0.7891 0.33021l0.40256-0.99064c-0.26307-0.16643-0.56642-0.28999-0.91002-0.37052-0.3436-0.085899-0.69262-0.12867-1.047-0.12867zm-58.716 0.096635v3.1569c0 0.82679 0.22547 1.4628 0.67644 1.9084 0.45098 0.44561 1.0769 0.66869 1.8769 0.66869 0.79995 0 1.4254-0.22308 1.8764-0.66869 0.45098-0.44561 0.67644-1.0816 0.67644-1.9084v-3.1569h-1.2888v3.1083c0 0.53688-0.11009 0.92339-0.33021 1.1596-0.22012 0.23623-0.52875 0.3545-0.92604 0.3545s-0.70592-0.11827-0.92604-0.3545c-0.22012-0.23623-0.33021-0.62274-0.33021-1.1596v-3.1083h-1.3048zm43.979 0v5.6374h1.3048v-1.5544h1.1353c0.50466 0 0.93924-0.080782 1.3043-0.24185 0.36508-0.16643 0.6473-0.40246 0.84594-0.70848 0.19864-0.30602 0.29766-0.66851 0.29766-1.0873 0-0.42413-0.099011-0.789-0.29766-1.095-0.19864-0.30602-0.48086-0.53967-0.84594-0.70073-0.36508-0.16643-0.79965-0.2496-1.3043-0.2496h-2.4402zm-16.235 0.34623v1.0547h-0.66869v0.96687h0.66869v1.7797c0 0.5154 0.1423 0.9043 0.42685 1.1674 0.28455 0.2577 0.68162 0.38654 1.1917 0.38654 0.19328 0 0.37835-0.021129 0.55552-0.064079 0.18254-0.048319 0.3383-0.11854 0.46716-0.20981l-0.33796-0.88573c-0.13959 0.10738-0.30882 0.16123-0.50746 0.16123-0.16643 0-0.29817-0.048572-0.39481-0.14521-0.096638-0.10201-0.14469-0.24431-0.14469-0.42685v-1.7632h1.079v-0.96687h-1.079v-1.0547h-1.2563zm24.86 0.66818c0.25233 0 0.48598 0.043292 0.70073 0.12919 0.21475 0.085901 0.39983 0.20946 0.55552 0.37052 0.16106 0.16106 0.28462 0.35142 0.37052 0.57154 0.09127 0.22012 0.13694 0.46433 0.13694 0.73277 0 0.26844-0.045673 0.51265-0.13694 0.73277-0.0859 0.22012-0.20946 0.411-0.37052 0.57206-0.16106 0.16106-0.34904 0.28462-0.56379 0.37052-0.20938 0.085899-0.44013 0.12867-0.69246 0.12867s-0.48598-0.042775-0.70073-0.12867c-0.21475-0.085901-0.40221-0.20946-0.56327-0.37052-0.1557-0.16106-0.27925-0.35194-0.37052-0.57206-0.085901-0.22549-0.12919-0.4697-0.12919-0.73277 0-0.26844 0.04329-0.51265 0.12919-0.73277 0.091268-0.22012 0.21721-0.41048 0.37827-0.57154 0.16106-0.16106 0.34614-0.28462 0.55552-0.37052 0.21475-0.085899 0.4484-0.12919 0.70073-0.12919zm-7.32 0.048576h1.063c0.40266 0 0.70311 0.086064 0.90175 0.25787 0.19865 0.1718 0.29817 0.41311 0.29817 0.7245 0 0.30602-0.099527 0.54495-0.29817 0.71675-0.19864 0.1718-0.4991 0.25787-0.90175 0.25787h-1.063v-1.957zm-36.344 0.17725c-0.37045 0-0.70072 0.077883-0.99064 0.23358-0.1724 0.092589-0.31793 0.21186-0.44287 0.35192v-0.52142h-1.1999v4.3331h1.2563v-2.1425c0-0.26844 0.042773-0.48862 0.12867-0.66042 0.09127-0.1718 0.21482-0.29774 0.37052-0.37827 0.16106-0.085901 0.34086-0.12867 0.5395-0.12867 0.27918 0 0.49408 0.083164 0.6444 0.2496 0.1557 0.16643 0.23358 0.42411 0.23358 0.77308v2.2872h1.2563v-2.4805c0-0.44024-0.077883-0.79983-0.23358-1.079-0.1557-0.28454-0.3706-0.49416-0.6444-0.62838-0.26844-0.13959-0.57417-0.20929-0.91777-0.20929zm10.34 0c-0.35434 0-0.67115 0.077883-0.95033 0.23358-0.15824 0.08688-0.29331 0.2006-0.41031 0.3359v-0.5054h-1.1999v4.3331h1.2563v-2.1745c0-0.2577 0.039874-0.4697 0.12041-0.63614s0.19352-0.28999 0.33848-0.37052c0.14496-0.085901 0.3089-0.12867 0.49144-0.12867 0.26307 0 0.46399 0.083164 0.60358 0.2496 0.14496 0.16643 0.21756 0.42411 0.21756 0.77308v2.2872h1.2563v-2.1745c0-0.2577 0.040391-0.4697 0.12092-0.63614s0.19301-0.28999 0.33796-0.37052c0.14496-0.085901 0.3089-0.12867 0.49144-0.12867 0.26307 0 0.46689 0.083164 0.61185 0.2496 0.14496 0.16643 0.21756 0.42411 0.21756 0.77308v2.2872h1.2563v-2.4805c0-0.44024-0.077882-0.79983-0.23358-1.079-0.15033-0.28454-0.35943-0.49416-0.62787-0.62838-0.26307-0.13959-0.56642-0.20929-0.91002-0.20929-0.4134 0-0.78116 0.099011-1.1033 0.29766-0.18184 0.11404-0.33211 0.25389-0.45734 0.41393-0.10181-0.16444-0.22956-0.30092-0.38809-0.40566-0.29528-0.20401-0.64192-0.30592-1.0392-0.30592zm13.666 0c-0.44024 0-0.83494 0.096629-1.1839 0.2899-0.34897 0.18791-0.62539 0.45087-0.82941 0.7891-0.19864 0.33287-0.29817 0.717-0.29817 1.1519 0 0.4295 0.10243 0.81312 0.30644 1.1514 0.20401 0.33286 0.491 0.59582 0.86145 0.7891 0.37581 0.19328 0.8109 0.2899 1.3048 0.2899 0.39192 0 0.73804-0.059137 1.0387-0.17725 0.30065-0.12348 0.55015-0.29799 0.74879-0.52348l-0.66818-0.7245c-0.14496 0.13959-0.306 0.2444-0.48317 0.31419-0.1718 0.069793-0.37324 0.10439-0.6041 0.10439-0.2577 0-0.48317-0.045673-0.67644-0.13694-0.18791-0.096638-0.33549-0.23314-0.44287-0.41031-0.055337-0.099022-0.092505-0.20764-0.11782-0.32246h3.2747c0.005369-0.053688 0.010651-0.10993 0.01602-0.16898 0.005368-0.064426 0.008268-0.12066 0.008268-0.16898 0-0.46708-0.099528-0.86706-0.29817-1.1999-0.19865-0.33823-0.46978-0.59591-0.81339-0.77308-0.33823-0.18254-0.71946-0.27388-1.1436-0.27388zm-18.651 0.064079v4.3331h1.2563v-4.3331h-1.2563zm10.872 0v4.3331h1.2563v-4.3331h-1.2563zm7.7876 0.88625c0.21475 0 0.40221 0.048056 0.56327 0.14469 0.16106 0.09127 0.28752 0.22011 0.37879 0.38654 0.05988 0.10919 0.093094 0.23591 0.11369 0.37052h-2.1182c0.021099-0.13222 0.053978-0.2562 0.11214-0.36225 0.091269-0.1718 0.21721-0.30354 0.37827-0.39481 0.16643-0.096638 0.35731-0.14469 0.57206-0.14469zm5.162 0.080615c0.20402 0 0.38909 0.048056 0.55552 0.14469 0.16643 0.096639 0.29817 0.23366 0.39481 0.41083 0.10201 0.17717 0.15296 0.39207 0.15296 0.6444 0 0.24696-0.050955 0.46135-0.15296 0.64389-0.096638 0.17717-0.22838 0.31419-0.39481 0.41083s-0.35151 0.14521-0.55552 0.14521c-0.20938 0-0.39736-0.048573-0.56379-0.14521-0.16643-0.096638-0.30055-0.23366-0.40256-0.41083-0.096638-0.18254-0.14521-0.39692-0.14521-0.64389 0-0.25233 0.048573-0.46724 0.14521-0.6444 0.10201-0.17717 0.23613-0.31419 0.40256-0.41083 0.16643-0.096638 0.35441-0.14469 0.56379-0.14469z"/><path d="m6.102 0a6.1022 6.1022 0 0 0-6.102 6.1025 6.1022 6.1022 0 0 0 6.102 6.102 6.1022 6.1022 0 0 0 4.5672-2.0614 6.1022 6.1022 0 0 0 4.5672 2.0614 6.1022 6.1022 0 0 0 6.102-6.102 6.1022 6.1022 0 0 0-6.102-6.1025 6.1022 6.1022 0 0 0-4.5646 2.0593 6.1022 6.1022 0 0 0-4.5697-2.0593zm0 3.098a3.0045 3.0045 0 0 1 3.0045 3.0045 3.0045 3.0045 0 0 1-3.0045 3.0045 3.0045 3.0045 0 0 1-3.0045-3.0045 3.0045 3.0045 0 0 1 3.0045-3.0045zm9.1343 0a3.0045 3.0045 0 0 1 3.0045 3.0045 3.0045 3.0045 0 0 1-3.0045 3.0045 3.0045 3.0045 0 0 1-3.0045-3.0045 3.0045 3.0045 0 0 1 3.0045-3.0045zm30.891 5.4606a2.7718 2.7718 0 0 0-2.7719 2.7714 2.7718 2.7718 0 0 0 2.7719 2.7719 2.7718 2.7718 0 0 0 2.7719-2.7719 2.7718 2.7718 0 0 0-2.7719-2.7714zm13.185 0a2.7718 2.7718 0 0 0-2.7719 2.7714 2.7718 2.7718 0 0 0 2.7719 2.7719 2.7718 2.7718 0 0 0 2.7714-2.7719 2.7718 2.7718 0 0 0-2.7714-2.7714z" fill="#2798f2" stroke-width=".70868"/></svg>
